<svg width="1024" height="1024" viewBox="0 0 1024 1024" fill="none" xmlns="http://www.w3.org/2000/svg">
<rect width="1024" height="1024" fill="white"/>
<path d="M194.17 452.869H124.51L135.708 493.459L113.318 512.403L76 424H219.053L194.175 452.864L194.17 452.869ZM189.194 596.294L214.072 566.524H283.732L272.534 543.073L294.925 525.034L332.242 596.294H189.194ZM166.804 593.587L128.24 598.1L235.217 433.925L268.805 433.024L166.804 593.587ZM849.728 485.345H880.828V597.199H849.728V485.345ZM938.049 597.199H882.07L895.755 570.136H948L938.049 597.199ZM799.971 597.199L768.871 530.447L748.968 571.036H780.068L792.508 597.194H704.187L758.919 485.34H778.822L833.554 597.194H799.966L799.971 597.199ZM710.409 512.403H679.308V597.194H649.454V512.403H607.161L618.359 485.34H721.607L710.409 512.403ZM583.524 552.998C576.061 561.117 566.109 564.723 554.911 564.723H516.347L528.787 538.566H554.911C557.399 538.566 558.646 537.665 561.134 535.859C562.38 533.153 563.621 529.546 563.621 525.034C563.621 521.427 562.38 517.816 561.134 515.109C558.646 513.303 557.399 512.403 554.911 512.403H515.106V597.194H484.006V485.34H554.911C566.109 485.34 576.061 489.852 583.524 497.065C590.988 505.184 594.722 514.204 594.722 525.029C594.722 536.755 590.988 545.779 583.524 552.998ZM426.79 516.915C420.568 512.403 413.105 509.697 401.912 509.697C389.473 509.697 382.009 512.403 375.787 516.915C370.811 523.228 367.077 531.347 367.077 541.272C367.077 551.197 370.811 559.311 375.787 564.723C382.009 570.136 389.473 572.842 401.912 572.842C413.11 572.842 420.573 570.136 426.79 564.723C431.766 559.311 435.5 551.192 435.5 541.272C435.5 531.352 431.766 523.233 426.79 516.915ZM449.181 581.862C437.983 593.587 421.815 599 401.912 599C380.763 599 364.594 593.587 353.397 581.862C342.199 571.036 337.223 559.311 337.223 545.779C337.223 525.935 342.199 510.597 353.397 499.777C364.594 488.952 380.763 482.639 401.912 482.639C421.815 482.639 437.988 488.952 449.181 499.777C460.379 510.602 465.354 524.134 465.354 541.272C465.354 557.51 460.379 571.041 449.181 581.862Z" fill="#0098E9"/>
</svg>
