<svg width="1024" height="1024" viewBox="0 0 1024 1024" fill="none" xmlns="http://www.w3.org/2000/svg">
<rect width="1024" height="1024" fill="white"/>
<path d="M201.449 416.268H133.393L144.333 456.012L122.458 474.561L86 388H225.759L201.454 416.263L201.449 416.268ZM196.587 556.704L220.893 527.555H288.948L278.008 504.592L299.883 486.929L336.342 556.704H196.587ZM174.713 554.054L137.037 558.473L241.55 397.718L274.365 396.836L174.713 554.054ZM841.911 448.067H872.295V557.591H841.911V448.067ZM928.198 557.591H873.508L886.878 531.092H937.92L928.198 557.591ZM793.3 557.591L762.915 492.229L743.471 531.973H773.855L786.008 557.586H699.721L753.193 448.062H772.637L826.11 557.586H793.295L793.3 557.591ZM705.8 474.561H675.416V557.586H646.249V474.561H604.93L615.87 448.062H716.74L705.8 474.561ZM581.837 514.31C574.545 522.26 564.823 525.792 553.883 525.792H516.207L528.36 500.179H553.883C556.314 500.179 557.531 499.297 559.962 497.529C561.18 494.879 562.393 491.347 562.393 486.929C562.393 483.398 561.18 479.861 559.962 477.211C557.531 475.443 556.314 474.561 553.883 474.561H514.994V557.586H484.61V448.062H553.883C564.823 448.062 574.545 452.48 581.837 459.543C589.129 467.493 592.777 476.325 592.777 486.924C592.777 498.406 589.129 507.242 581.837 514.31ZM428.712 478.979C422.633 474.561 415.342 471.911 404.407 471.911C392.254 471.911 384.962 474.561 378.884 478.979C374.023 485.161 370.374 493.111 370.374 502.829C370.374 512.547 374.023 520.492 378.884 525.792C384.962 531.092 392.254 533.742 404.407 533.742C415.347 533.742 422.638 531.092 428.712 525.792C433.573 520.492 437.222 512.542 437.222 502.829C437.222 493.116 433.573 485.166 428.712 478.979ZM450.587 542.573C439.647 554.054 423.851 559.354 404.407 559.354C383.745 559.354 367.949 554.054 357.009 542.573C346.069 531.973 341.208 520.492 341.208 507.242C341.208 487.811 346.069 472.793 357.009 462.198C367.949 451.598 383.745 445.417 404.407 445.417C423.851 445.417 439.652 451.598 450.587 462.198C461.527 472.798 466.388 486.048 466.388 502.829C466.388 518.729 461.527 531.978 450.587 542.573Z" fill="#0098E9"/>
<path d="M388.087 624.525C388.087 628.022 386.835 630.776 384.325 632.792C381.816 634.808 378.335 635.814 373.868 635.814C369.757 635.814 366.113 635.036 362.948 633.481V625.848C365.551 627.017 367.755 627.834 369.555 628.315C371.354 628.795 373.006 629.033 374.5 629.033C376.294 629.033 377.67 628.691 378.626 628.003C379.582 627.314 380.066 626.289 380.066 624.927C380.066 624.169 379.854 623.49 379.435 622.901C379.016 622.311 378.394 621.742 377.576 621.192C376.758 620.647 375.096 619.77 372.577 618.567C370.22 617.452 368.455 616.387 367.277 615.362C366.099 614.337 365.157 613.143 364.452 611.781C363.747 610.424 363.397 608.834 363.397 607.011C363.397 603.583 364.551 600.889 366.868 598.927C369.18 596.966 372.375 595.985 376.457 595.985C378.458 595.985 380.371 596.223 382.195 596.704C384.02 597.184 385.918 597.853 387.904 598.719L385.267 605.104C383.211 604.257 381.51 603.663 380.164 603.331C378.818 602.999 377.497 602.826 376.195 602.826C374.647 602.826 373.459 603.187 372.636 603.91C371.813 604.634 371.398 605.58 371.398 606.749C371.398 607.472 371.566 608.101 371.901 608.641C372.237 609.181 372.769 609.701 373.499 610.201C374.228 610.706 375.959 611.613 378.68 612.92C382.284 614.649 384.754 616.387 386.09 618.126C387.426 619.864 388.097 621.999 388.097 624.525H388.087Z" fill="#1F1F1F"/>
<path d="M430.674 615.858C430.674 622.268 429.091 627.201 425.926 630.643C422.761 634.086 418.225 635.81 412.319 635.81C406.413 635.81 401.872 634.086 398.707 630.643C395.542 627.196 393.959 622.253 393.959 615.804C393.959 609.355 395.547 604.431 398.722 601.028C401.897 597.626 406.442 595.927 412.373 595.927C418.304 595.927 422.83 597.641 425.97 601.068C429.111 604.496 430.679 609.424 430.679 615.853L430.674 615.858ZM402.528 615.858C402.528 620.187 403.346 623.446 404.983 625.636C406.62 627.825 409.06 628.92 412.314 628.92C418.837 628.92 422.1 624.566 422.1 615.858C422.1 607.151 418.856 602.767 412.368 602.767C409.114 602.767 406.659 603.867 405.008 606.066C403.356 608.265 402.528 611.529 402.528 615.858Z" fill="#1F1F1F"/>
<path d="M439.256 635.282V596.538H447.435V628.496H463.073V635.282H439.256Z" fill="#1F1F1F"/>
<path d="M501.757 596.538V621.606C501.757 624.469 501.121 626.975 499.844 629.135C498.567 631.294 496.728 632.944 494.318 634.088C491.907 635.237 489.062 635.812 485.774 635.812C480.814 635.812 476.964 634.534 474.222 631.983C471.476 629.427 470.106 625.935 470.106 621.502V596.538H478.255V620.259C478.255 623.245 478.852 625.435 480.05 626.832C481.248 628.228 483.225 628.922 485.986 628.922C488.658 628.922 490.6 628.218 491.803 626.817C493.011 625.415 493.613 623.211 493.613 620.209V596.543H501.762L501.757 596.538Z" fill="#1F1F1F"/>
<path d="M526.667 635.277H518.488V603.373H508.017V596.538H537.134V603.373H526.662V635.277H526.667Z" fill="#1F1F1F"/>
<path d="M543.668 635.282V596.538H551.848V635.282H543.668Z" fill="#1F1F1F"/>
<path d="M597.147 615.858C597.147 622.268 595.564 627.201 592.399 630.643C589.234 634.086 584.698 635.81 578.792 635.81C572.886 635.81 568.345 634.086 565.18 630.643C562.015 627.196 560.432 622.253 560.432 615.804C560.432 609.355 562.02 604.431 565.195 601.028C568.37 597.626 572.915 595.927 578.846 595.927C584.777 595.927 589.303 597.641 592.443 601.068C595.584 604.496 597.152 609.424 597.152 615.853L597.147 615.858ZM569.001 615.858C569.001 620.187 569.819 623.446 571.456 625.636C573.093 627.825 575.533 628.92 578.787 628.92C585.31 628.92 588.573 624.566 588.573 615.858C588.573 607.151 585.329 602.767 578.841 602.767C575.587 602.767 573.132 603.867 571.481 606.066C569.829 608.265 569.001 611.529 569.001 615.858Z" fill="#1F1F1F"/>
<path d="M639.942 635.282H629.55L612.772 605.974H612.536C612.871 611.15 613.039 614.845 613.039 617.049V635.282H605.732V596.538H616.046L632.794 625.554H632.976C632.715 620.516 632.582 616.96 632.582 614.875V596.538H639.942V635.282Z" fill="#1F1F1F"/>
<path d="M673.01 624.525C673.01 628.022 671.757 630.776 669.248 632.792C666.738 634.808 663.258 635.814 658.791 635.814C654.679 635.814 651.036 635.036 647.871 633.481V625.848C650.474 627.017 652.678 627.834 654.477 628.315C656.277 628.795 657.928 629.033 659.422 629.033C661.217 629.033 662.592 628.691 663.549 628.003C664.505 627.314 664.988 626.289 664.988 624.927C664.988 624.169 664.776 623.49 664.357 622.901C663.938 622.311 663.317 621.742 662.498 621.192C661.68 620.647 660.019 619.77 657.499 618.567C655.143 617.452 653.378 616.387 652.2 615.362C651.021 614.337 650.08 613.143 649.374 611.781C648.669 610.424 648.32 608.834 648.32 607.011C648.32 603.583 649.473 600.889 651.79 598.927C654.103 596.966 657.297 595.985 661.379 595.985C663.381 595.985 665.294 596.223 667.118 596.704C668.942 597.184 670.84 597.853 672.827 598.719L670.189 605.104C668.134 604.257 666.433 603.663 665.087 603.331C663.741 602.999 662.42 602.826 661.118 602.826C659.57 602.826 658.382 603.187 657.559 603.91C656.735 604.634 656.321 605.58 656.321 606.749C656.321 607.472 656.489 608.101 656.824 608.641C657.159 609.181 657.692 609.701 658.421 610.201C659.151 610.706 660.881 611.613 663.603 612.92C667.207 614.649 669.677 616.387 671.013 618.126C672.349 619.864 673.019 621.999 673.019 624.525H673.01Z" fill="#1F1F1F"/>
<path d="M721.859 608.624C721.859 612.794 720.562 615.979 717.969 618.188C715.376 620.397 711.688 621.502 706.906 621.502H703.4V635.282H695.221V596.538H707.542C712.22 596.538 715.775 597.553 718.211 599.574C720.646 601.595 721.859 604.612 721.859 608.624ZM703.396 614.776H706.083C708.597 614.776 710.48 614.275 711.727 613.275C712.975 612.279 713.601 610.823 713.601 608.916C713.601 606.989 713.078 605.568 712.033 604.651C710.988 603.73 709.346 603.274 707.113 603.274H703.396V614.776Z" fill="#1F1F1F"/>
<path d="M751.729 596.538H759.982L746.873 635.282H737.959L724.875 596.538H733.128L740.385 619.595C740.789 620.952 741.208 622.542 741.637 624.35C742.066 626.163 742.337 627.421 742.441 628.129C742.633 626.505 743.293 623.662 744.417 619.595L751.729 596.538Z" fill="#1F1F1F"/>
<path d="M780.309 635.277H772.13V603.373H761.658V596.538H790.775V603.373H780.304V635.277H780.309Z" fill="#1F1F1F"/>
<path d="M795.537 631.493C795.537 630.012 795.931 628.887 796.725 628.129C797.519 627.372 798.668 626.99 800.181 626.99C801.641 626.99 802.77 627.377 803.574 628.154C804.377 628.932 804.777 630.041 804.777 631.493C804.777 632.889 804.372 633.989 803.564 634.791C802.755 635.599 801.626 636 800.186 636C798.712 636 797.568 635.604 796.76 634.821C795.951 634.039 795.547 632.929 795.547 631.498L795.537 631.493Z" fill="#1F1F1F"/>
<path d="M826.963 635.233V596.489H835.142V628.447H850.78V635.233H826.963Z" fill="#1F1F1F"/>
<path d="M872.95 635.238H864.771V603.334H854.299V596.499H883.416V603.334H872.945V635.238H872.95Z" fill="#1F1F1F"/>
<path d="M921.943 615.494C921.943 621.874 920.133 626.758 916.52 630.146C912.906 633.539 907.685 635.233 900.866 635.233H889.946V596.489H902.055C908.35 596.489 913.241 598.158 916.722 601.497C920.202 604.835 921.948 609.501 921.948 615.49L921.943 615.494ZM913.448 615.707C913.448 607.386 909.79 603.226 902.474 603.226H898.125V628.452H901.631C909.509 628.452 913.448 624.202 913.448 615.707Z" fill="#1F1F1F"/>
<path d="M928.761 631.444C928.761 629.963 929.155 628.838 929.949 628.081C930.743 627.323 931.892 626.941 933.405 626.941C934.865 626.941 935.994 627.328 936.798 628.105C937.601 628.883 938.001 629.993 938.001 631.444C938.001 632.841 937.596 633.94 936.788 634.743C935.979 635.55 934.85 635.951 933.41 635.951C931.936 635.951 930.792 635.555 929.984 634.772C929.175 633.99 928.771 632.88 928.771 631.449L928.761 631.444Z" fill="#1F1F1F"/>
</svg>
